<svg width="295" height="195" viewBox="0 0 295 195" fill="none" xmlns="http://www.w3.org/2000/svg">
<path d="M16.56 11.112H20.64L25.152 22.968L29.712 11.112H33.792L27.888 25.944L33.744 40.008L45.264 10.92H49.968L35.712 45H31.968L25.2 28.92L18.384 45H14.64L0.432 10.92H5.088L16.656 40.008L22.464 25.944L16.56 11.112ZM61.5585 45.48C59.0625 45.48 56.8545 44.888 54.9345 43.704C53.0145 42.52 51.5105 40.936 50.4225 38.952C49.3345 36.968 48.7905 34.808 48.7905 32.472C48.7905 30.104 49.3345 27.944 50.4225 25.992C51.5105 24.04 53.0145 22.472 54.9345 21.288C56.8865 20.104 59.1105 19.512 61.6065 19.512C64.1345 19.512 66.3265 20.12 68.1825 21.336C70.0705 22.52 71.5265 24.088 72.5505 26.04C73.6065 27.96 74.1345 30.04 74.1345 32.28C74.1345 32.984 74.1025 33.528 74.0385 33.912H53.2545C53.3825 35.544 53.8305 37 54.5985 38.28C55.3985 39.528 56.4225 40.52 57.6705 41.256C58.9185 41.96 60.2625 42.312 61.7025 42.312C63.2385 42.312 64.6785 41.928 66.0225 41.16C67.3985 40.392 68.3425 39.384 68.8545 38.136L72.5025 39.144C71.7025 41 70.3105 42.52 68.3265 43.704C66.3425 44.888 64.0865 45.48 61.5585 45.48ZM53.1105 30.984H70.1985C70.0705 29.352 69.6065 27.912 68.8065 26.664C68.0065 25.416 66.9825 24.44 65.7345 23.736C64.4865 23.032 63.1105 22.68 61.6065 22.68C60.1345 22.68 58.7745 23.032 57.5265 23.736C56.2785 24.44 55.2545 25.416 54.4545 26.664C53.6865 27.912 53.2385 29.352 53.1105 30.984ZM76.8619 37.752C76.8619 36.152 77.3099 34.776 78.2059 33.624C79.1339 32.44 80.3979 31.528 81.9979 30.888C83.5979 30.248 85.4539 29.928 87.5659 29.928C88.6859 29.928 89.8699 30.024 91.1179 30.216C92.3659 30.376 93.4699 30.632 94.4299 30.984V29.16C94.4299 27.24 93.8539 25.736 92.7019 24.648C91.5499 23.528 89.9179 22.968 87.8059 22.968C86.4299 22.968 85.1019 23.224 83.8219 23.736C82.5739 24.216 81.2459 24.92 79.8379 25.848L78.3019 22.872C79.9339 21.752 81.5659 20.92 83.1979 20.376C84.8299 19.8 86.5259 19.512 88.2859 19.512C91.4859 19.512 94.0139 20.408 95.8699 22.2C97.7259 23.96 98.6539 26.424 98.6539 29.592V40.2C98.6539 41.192 99.1019 41.704 99.9979 41.736V45C99.5819 45.064 99.2139 45.112 98.8939 45.144C98.6059 45.176 98.3659 45.192 98.1739 45.192C97.1819 45.192 96.4299 44.92 95.9179 44.376C95.4379 43.832 95.1659 43.256 95.1019 42.648L95.0059 41.064C93.9179 42.472 92.4939 43.56 90.7339 44.328C88.9739 45.096 87.2299 45.48 85.5019 45.48C83.8379 45.48 82.3499 45.144 81.0379 44.472C79.7259 43.768 78.7019 42.84 77.9659 41.688C77.2299 40.504 76.8619 39.192 76.8619 37.752ZM93.1819 39.528C93.5659 39.08 93.8699 38.632 94.0939 38.184C94.3179 37.704 94.4299 37.304 94.4299 36.984V33.864C92.3819 33.064 90.2699 32.664 88.0939 32.664C85.9499 32.664 84.2059 33.096 82.8619 33.96C81.5499 34.792 80.8939 35.944 80.8939 37.416C80.8939 38.216 81.1019 39 81.5179 39.768C81.9659 40.504 82.6059 41.112 83.4379 41.592C84.3019 42.072 85.3579 42.312 86.6059 42.312C87.9179 42.312 89.1659 42.056 90.3499 41.544C91.5339 41 92.4779 40.328 93.1819 39.528ZM118.181 43.752C117.669 43.976 116.853 44.296 115.733 44.712C114.645 45.128 113.429 45.336 112.085 45.336C110.549 45.336 109.221 44.92 108.101 44.088C106.981 43.224 106.421 41.896 106.421 40.104V23.256H103.013V19.944H106.421V11.592H110.645V19.944H116.261V23.256H110.645V38.808C110.709 39.704 111.013 40.376 111.557 40.824C112.101 41.24 112.741 41.448 113.477 41.448C114.309 41.448 115.077 41.304 115.781 41.016C116.485 40.728 116.949 40.52 117.173 40.392L118.181 43.752ZM143.84 45H139.616V30.984C139.616 28.424 139.152 26.504 138.224 25.224C137.328 23.944 136.032 23.304 134.336 23.304C133.248 23.304 132.144 23.592 131.023 24.168C129.936 24.744 128.976 25.528 128.144 26.52C127.312 27.48 126.704 28.6 126.32 29.88V45H122.096V9.96H126.32V25.32C127.312 23.528 128.656 22.12 130.352 21.096C132.08 20.04 133.936 19.512 135.92 19.512C137.904 19.512 139.472 19.976 140.624 20.904C141.776 21.832 142.592 23.096 143.072 24.696C143.584 26.264 143.84 28.04 143.84 30.024V45ZM161.496 45.48C159 45.48 156.792 44.888 154.872 43.704C152.952 42.52 151.448 40.936 150.36 38.952C149.272 36.968 148.728 34.808 148.728 32.472C148.728 30.104 149.272 27.944 150.36 25.992C151.448 24.04 152.952 22.472 154.872 21.288C156.824 20.104 159.048 19.512 161.544 19.512C164.072 19.512 166.264 20.12 168.12 21.336C170.008 22.52 171.464 24.088 172.488 26.04C173.544 27.96 174.072 30.04 174.072 32.28C174.072 32.984 174.04 33.528 173.976 33.912H153.192C153.32 35.544 153.768 37 154.536 38.28C155.336 39.528 156.36 40.52 157.608 41.256C158.856 41.96 160.2 42.312 161.64 42.312C163.176 42.312 164.616 41.928 165.96 41.16C167.336 40.392 168.28 39.384 168.792 38.136L172.44 39.144C171.64 41 170.248 42.52 168.264 43.704C166.28 44.888 164.024 45.48 161.496 45.48ZM153.048 30.984H170.136C170.008 29.352 169.544 27.912 168.744 26.664C167.944 25.416 166.92 24.44 165.672 23.736C164.424 23.032 163.048 22.68 161.544 22.68C160.072 22.68 158.712 23.032 157.464 23.736C156.216 24.44 155.192 25.416 154.392 26.664C153.624 27.912 153.176 29.352 153.048 30.984ZM192.015 23.64C189.903 23.672 188.031 24.216 186.399 25.272C184.799 26.296 183.663 27.72 182.991 29.544V45H178.767V19.944H182.703V25.752C183.567 24.024 184.703 22.632 186.111 21.576C187.551 20.488 189.055 19.88 190.623 19.752C190.943 19.752 191.215 19.752 191.439 19.752C191.663 19.752 191.855 19.768 192.015 19.8V23.64ZM216.761 10.92H220.409L234.329 45H229.721L225.689 35.016H211.385L207.401 45H202.793L216.761 10.92ZM224.729 31.656L218.585 15.912L212.249 31.656H224.729ZM251.693 45.48C249.645 45.48 247.821 44.968 246.221 43.944C244.621 42.92 243.357 41.624 242.429 40.056V55.224H238.205V19.944H241.949V24.648C242.941 23.112 244.237 21.88 245.837 20.952C247.437 19.992 249.181 19.512 251.069 19.512C252.797 19.512 254.381 19.864 255.821 20.568C257.261 21.272 258.509 22.232 259.565 23.448C260.621 24.664 261.437 26.056 262.013 27.624C262.621 29.16 262.925 30.776 262.925 32.472C262.925 34.84 262.445 37.016 261.485 39C260.557 40.984 259.245 42.568 257.549 43.752C255.853 44.904 253.901 45.48 251.693 45.48ZM250.397 41.832C252.061 41.832 253.501 41.384 254.717 40.488C255.933 39.592 256.877 38.424 257.549 36.984C258.253 35.544 258.605 34.04 258.605 32.472C258.605 30.776 258.221 29.224 257.453 27.816C256.717 26.408 255.693 25.288 254.381 24.456C253.101 23.592 251.645 23.16 250.013 23.16C249.021 23.16 247.965 23.416 246.845 23.928C245.757 24.44 244.797 25.128 243.965 25.992C243.165 26.824 242.653 27.752 242.429 28.776V35.928C243.133 37.592 244.205 39 245.645 40.152C247.117 41.272 248.701 41.832 250.397 41.832ZM281.599 45.48C279.551 45.48 277.727 44.968 276.127 43.944C274.527 42.92 273.263 41.624 272.335 40.056V55.224H268.111V19.944H271.855V24.648C272.847 23.112 274.143 21.88 275.743 20.952C277.343 19.992 279.087 19.512 280.975 19.512C282.703 19.512 284.287 19.864 285.727 20.568C287.167 21.272 288.415 22.232 289.471 23.448C290.527 24.664 291.343 26.056 291.919 27.624C292.527 29.16 292.831 30.776 292.831 32.472C292.831 34.84 292.351 37.016 291.391 39C290.463 40.984 289.151 42.568 287.455 43.752C285.759 44.904 283.807 45.48 281.599 45.48ZM280.303 41.832C281.967 41.832 283.407 41.384 284.623 40.488C285.839 39.592 286.783 38.424 287.455 36.984C288.159 35.544 288.511 34.04 288.511 32.472C288.511 30.776 288.127 29.224 287.359 27.816C286.623 26.408 285.599 25.288 284.287 24.456C283.007 23.592 281.551 23.16 279.919 23.16C278.927 23.16 277.871 23.416 276.751 23.928C275.663 24.44 274.703 25.128 273.871 25.992C273.071 26.824 272.559 27.752 272.335 28.776V35.928C273.039 37.592 274.111 39 275.551 40.152C277.023 41.272 278.607 41.832 280.303 41.832Z" fill="#F5F5F5"/>
<path d="M42.86 83V68.8H43.88V82.08H52.36V83H42.86ZM58.2481 83.2C57.2748 83.2 56.4015 82.9533 55.6281 82.46C54.8681 81.9667 54.2681 81.3133 53.8281 80.5C53.3881 79.6867 53.1681 78.7933 53.1681 77.82C53.1681 77.0867 53.2948 76.4 53.5481 75.76C53.8015 75.1067 54.1615 74.5333 54.6281 74.04C55.0948 73.5333 55.6348 73.14 56.2481 72.86C56.8615 72.5667 57.5281 72.42 58.2481 72.42C58.9681 72.42 59.6348 72.5667 60.2481 72.86C60.8615 73.14 61.3948 73.5333 61.8481 74.04C62.3148 74.5333 62.6748 75.1067 62.9281 75.76C63.1948 76.4 63.3281 77.0867 63.3281 77.82C63.3281 78.7933 63.1015 79.6867 62.6481 80.5C62.2081 81.3133 61.6015 81.9667 60.8281 82.46C60.0681 82.9533 59.2081 83.2 58.2481 83.2ZM54.1681 77.86C54.1681 78.6733 54.3481 79.42 54.7081 80.1C55.0815 80.7667 55.5748 81.3 56.1881 81.7C56.8015 82.1 57.4815 82.3 58.2281 82.3C58.9748 82.3 59.6548 82.1 60.2681 81.7C60.8948 81.2867 61.3881 80.74 61.7481 80.06C62.1215 79.38 62.3081 78.6267 62.3081 77.8C62.3081 76.9867 62.1215 76.24 61.7481 75.56C61.3881 74.88 60.8948 74.34 60.2681 73.94C59.6548 73.5267 58.9815 73.32 58.2481 73.32C57.5015 73.32 56.8215 73.5267 56.2081 73.94C55.5948 74.3533 55.1015 74.9067 54.7281 75.6C54.3548 76.28 54.1681 77.0333 54.1681 77.86ZM70.1441 83.2C69.1707 83.2 68.2974 82.9533 67.5241 82.46C66.7507 81.9667 66.1374 81.3067 65.6841 80.48C65.2307 79.6533 65.0041 78.7467 65.0041 77.76C65.0041 76.7733 65.2241 75.88 65.6641 75.08C66.1041 74.2667 66.7107 73.62 67.4841 73.14C68.2574 72.66 69.1374 72.42 70.1241 72.42C71.0707 72.42 71.9041 72.64 72.6241 73.08C73.3441 73.5067 73.8841 74.0933 74.2441 74.84L73.2641 75.16C72.9574 74.5867 72.5174 74.14 71.9441 73.82C71.3841 73.4867 70.7641 73.32 70.0841 73.32C69.3241 73.32 68.6374 73.52 68.0241 73.92C67.4107 74.3067 66.9174 74.8333 66.5441 75.5C66.1841 76.1667 66.0041 76.92 66.0041 77.76C66.0041 78.6 66.1907 79.3667 66.5641 80.06C66.9374 80.74 67.4307 81.2867 68.0441 81.7C68.6707 82.1 69.3574 82.3 70.1041 82.3C70.5841 82.3 71.0507 82.2133 71.5041 82.04C71.9707 81.8533 72.3707 81.6133 72.7041 81.32C73.0507 81.0267 73.2774 80.7133 73.3841 80.38L74.3641 80.66C74.1907 81.1533 73.8907 81.5933 73.4641 81.98C73.0507 82.3533 72.5574 82.6533 71.9841 82.88C71.4107 83.0933 70.7974 83.2 70.1441 83.2ZM75.7625 80C75.7625 79.3867 75.9425 78.8467 76.3025 78.38C76.6758 77.9133 77.1892 77.5533 77.8425 77.3C78.5092 77.0333 79.2692 76.9 80.1225 76.9C80.6558 76.9 81.2092 76.9467 81.7825 77.04C82.3692 77.1333 82.8825 77.26 83.3225 77.42V76.44C83.3225 75.48 83.0425 74.7133 82.4825 74.14C81.9225 73.5667 81.1625 73.28 80.2025 73.28C79.6825 73.28 79.1425 73.3867 78.5825 73.6C78.0225 73.8133 77.4492 74.12 76.8625 74.52L76.4425 73.8C77.8025 72.88 79.0892 72.42 80.3025 72.42C81.5292 72.42 82.5025 72.7867 83.2225 73.52C83.9558 74.2533 84.3225 75.2533 84.3225 76.52V81.68C84.3225 82 84.4692 82.1667 84.7625 82.18V83C84.5092 83.0267 84.3425 83.0333 84.2625 83.02C84.0092 82.9933 83.8092 82.8867 83.6625 82.7C83.5292 82.5133 83.4558 82.32 83.4425 82.12V81.3C82.9625 81.9 82.3425 82.3667 81.5825 82.7C80.8358 83.0333 80.0492 83.2 79.2225 83.2C78.5692 83.2 77.9758 83.06 77.4425 82.78C76.9225 82.4867 76.5092 82.1 76.2025 81.62C75.9092 81.14 75.7625 80.6 75.7625 80ZM82.9225 80.86C83.1892 80.5267 83.3225 80.2133 83.3225 79.92V78.2C82.3625 77.8267 81.3292 77.64 80.2225 77.64C79.1692 77.64 78.3225 77.8533 77.6825 78.28C77.0425 78.6933 76.7225 79.2467 76.7225 79.94C76.7225 80.38 76.8358 80.7867 77.0625 81.16C77.2892 81.5333 77.6025 81.8333 78.0025 82.06C78.4158 82.2867 78.8892 82.4 79.4225 82.4C80.1692 82.4 80.8558 82.26 81.4825 81.98C82.1092 81.6867 82.5892 81.3133 82.9225 80.86ZM87.4447 68.4H88.4647V80.94C88.4647 81.42 88.5647 81.7533 88.7647 81.94C88.9647 82.1133 89.2247 82.2 89.5447 82.2C89.758 82.2 89.978 82.18 90.2047 82.14C90.4314 82.1 90.6314 82.0467 90.8047 81.98L91.0047 82.8C90.778 82.88 90.498 82.9533 90.1647 83.02C89.8314 83.0867 89.5447 83.12 89.3047 83.12C88.7447 83.12 88.2914 82.9533 87.9447 82.62C87.6114 82.2733 87.4447 81.8133 87.4447 81.24V68.4ZM109.685 72.6H110.685L106.185 83H105.305L103.005 77.58L100.705 83H99.8253L95.3253 72.6H96.3053L100.285 81.9L102.425 76.82L100.685 72.62H101.585L103.005 76.04L104.405 72.62H105.325L103.585 76.82L105.725 81.9L109.685 72.6ZM116.668 83.2C115.694 83.2 114.814 82.9533 114.028 82.46C113.254 81.9667 112.641 81.3067 112.188 80.48C111.748 79.6533 111.528 78.7467 111.528 77.76C111.528 76.7867 111.748 75.9 112.188 75.1C112.628 74.2867 113.234 73.64 114.008 73.16C114.781 72.6667 115.648 72.42 116.608 72.42C117.594 72.42 118.468 72.6667 119.228 73.16C120.001 73.64 120.608 74.2867 121.048 75.1C121.488 75.9133 121.707 76.8 121.707 77.76C121.707 77.92 121.701 78.0667 121.688 78.2H112.568C112.621 79 112.841 79.72 113.228 80.36C113.614 80.9867 114.108 81.4867 114.708 81.86C115.321 82.22 115.988 82.4 116.708 82.4C117.428 82.4 118.108 82.2133 118.748 81.84C119.388 81.4667 119.834 80.9867 120.088 80.4L120.967 80.64C120.768 81.1333 120.448 81.5733 120.008 81.96C119.581 82.3467 119.074 82.6533 118.488 82.88C117.914 83.0933 117.308 83.2 116.668 83.2ZM112.528 77.42H120.748C120.694 76.6067 120.474 75.8867 120.088 75.26C119.714 74.62 119.228 74.1267 118.628 73.78C118.028 73.42 117.361 73.24 116.628 73.24C115.894 73.24 115.228 73.42 114.628 73.78C114.028 74.14 113.541 74.64 113.168 75.28C112.794 75.9067 112.581 76.62 112.528 77.42ZM123.048 80C123.048 79.3867 123.228 78.8467 123.588 78.38C123.961 77.9133 124.474 77.5533 125.128 77.3C125.794 77.0333 126.554 76.9 127.408 76.9C127.941 76.9 128.494 76.9467 129.068 77.04C129.654 77.1333 130.168 77.26 130.608 77.42V76.44C130.608 75.48 130.328 74.7133 129.768 74.14C129.208 73.5667 128.448 73.28 127.488 73.28C126.968 73.28 126.428 73.3867 125.868 73.6C125.308 73.8133 124.734 74.12 124.148 74.52L123.728 73.8C125.088 72.88 126.374 72.42 127.588 72.42C128.814 72.42 129.788 72.7867 130.508 73.52C131.241 74.2533 131.608 75.2533 131.608 76.52V81.68C131.608 82 131.754 82.1667 132.048 82.18V83C131.794 83.0267 131.628 83.0333 131.548 83.02C131.294 82.9933 131.094 82.8867 130.948 82.7C130.814 82.5133 130.741 82.32 130.728 82.12V81.3C130.248 81.9 129.628 82.3667 128.868 82.7C128.121 83.0333 127.334 83.2 126.508 83.2C125.854 83.2 125.261 83.06 124.728 82.78C124.208 82.4867 123.794 82.1 123.488 81.62C123.194 81.14 123.048 80.6 123.048 80ZM130.208 80.86C130.474 80.5267 130.608 80.2133 130.608 79.92V78.2C129.648 77.8267 128.614 77.64 127.508 77.64C126.454 77.64 125.608 77.8533 124.968 78.28C124.328 78.6933 124.008 79.2467 124.008 79.94C124.008 80.38 124.121 80.7867 124.348 81.16C124.574 81.5333 124.888 81.8333 125.288 82.06C125.701 82.2867 126.174 82.4 126.708 82.4C127.454 82.4 128.141 82.26 128.768 81.98C129.394 81.6867 129.874 81.3133 130.208 80.86ZM139.212 82.5C139.118 82.5533 138.872 82.6733 138.472 82.86C138.072 83.0333 137.592 83.12 137.032 83.12C136.485 83.12 136.005 82.96 135.592 82.64C135.192 82.32 134.992 81.86 134.992 81.26V73.42H133.532V72.6H134.992V69.04H135.992V72.6H138.412V73.42H135.992V81.02C136.018 81.4067 136.158 81.7 136.412 81.9C136.665 82.0867 136.958 82.18 137.292 82.18C137.705 82.18 138.065 82.1133 138.372 81.98C138.678 81.8333 138.858 81.74 138.912 81.7L139.212 82.5ZM149.478 83H148.478V77.2C148.478 74.6267 147.618 73.34 145.898 73.34C145.338 73.34 144.791 73.48 144.258 73.76C143.725 74.04 143.251 74.4267 142.838 74.92C142.438 75.4 142.151 75.9467 141.978 76.56V83H140.978V68.4H141.978V75.08C142.405 74.2667 142.998 73.62 143.758 73.14C144.518 72.66 145.325 72.42 146.178 72.42C147.338 72.42 148.178 72.8333 148.698 73.66C149.218 74.4733 149.478 75.5933 149.478 77.02V83ZM156.921 83.2C155.948 83.2 155.068 82.9533 154.281 82.46C153.508 81.9667 152.895 81.3067 152.441 80.48C152.001 79.6533 151.781 78.7467 151.781 77.76C151.781 76.7867 152.001 75.9 152.441 75.1C152.881 74.2867 153.488 73.64 154.261 73.16C155.035 72.6667 155.901 72.42 156.861 72.42C157.848 72.42 158.721 72.6667 159.481 73.16C160.255 73.64 160.861 74.2867 161.301 75.1C161.741 75.9133 161.961 76.8 161.961 77.76C161.961 77.92 161.955 78.0667 161.941 78.2H152.821C152.875 79 153.095 79.72 153.481 80.36C153.868 80.9867 154.361 81.4867 154.961 81.86C155.575 82.22 156.241 82.4 156.961 82.4C157.681 82.4 158.361 82.2133 159.001 81.84C159.641 81.4667 160.088 80.9867 160.341 80.4L161.221 80.64C161.021 81.1333 160.701 81.5733 160.261 81.96C159.835 82.3467 159.328 82.6533 158.741 82.88C158.168 83.0933 157.561 83.2 156.921 83.2ZM152.781 77.42H161.001C160.948 76.6067 160.728 75.8867 160.341 75.26C159.968 74.62 159.481 74.1267 158.881 73.78C158.281 73.42 157.615 73.24 156.881 73.24C156.148 73.24 155.481 73.42 154.881 73.78C154.281 74.14 153.795 74.64 153.421 75.28C153.048 75.9067 152.835 76.62 152.781 77.42ZM169.082 73.5C168.148 73.5267 167.328 73.8067 166.622 74.34C165.928 74.86 165.442 75.58 165.162 76.5V83H164.162V72.6H165.122V75.16C165.482 74.44 165.962 73.8467 166.562 73.38C167.162 72.9133 167.795 72.6467 168.462 72.58C168.595 72.58 168.708 72.58 168.802 72.58C168.908 72.5667 169.002 72.56 169.082 72.56V73.5ZM184.126 83H183.126V77.2C183.126 75.8667 182.933 74.8933 182.546 74.28C182.16 73.6533 181.56 73.34 180.746 73.34C180.16 73.34 179.586 73.48 179.026 73.76C178.466 74.04 177.973 74.4267 177.546 74.92C177.12 75.4 176.813 75.9467 176.626 76.56V83H175.626V72.6H176.566V75.08C176.98 74.2933 177.593 73.6533 178.406 73.16C179.233 72.6667 180.106 72.42 181.026 72.42C182.16 72.42 182.96 72.82 183.426 73.62C183.893 74.42 184.126 75.5533 184.126 77.02V83ZM191.57 83.2C190.597 83.2 189.717 82.9533 188.93 82.46C188.157 81.9667 187.543 81.3067 187.09 80.48C186.65 79.6533 186.43 78.7467 186.43 77.76C186.43 76.7867 186.65 75.9 187.09 75.1C187.53 74.2867 188.137 73.64 188.91 73.16C189.683 72.6667 190.55 72.42 191.51 72.42C192.497 72.42 193.37 72.6667 194.13 73.16C194.903 73.64 195.51 74.2867 195.95 75.1C196.39 75.9133 196.61 76.8 196.61 77.76C196.61 77.92 196.603 78.0667 196.59 78.2H187.47C187.523 79 187.743 79.72 188.13 80.36C188.517 80.9867 189.01 81.4867 189.61 81.86C190.223 82.22 190.89 82.4 191.61 82.4C192.33 82.4 193.01 82.2133 193.65 81.84C194.29 81.4667 194.737 80.9867 194.99 80.4L195.87 80.64C195.67 81.1333 195.35 81.5733 194.91 81.96C194.483 82.3467 193.977 82.6533 193.39 82.88C192.817 83.0933 192.21 83.2 191.57 83.2ZM187.43 77.42H195.65C195.597 76.6067 195.377 75.8867 194.99 75.26C194.617 74.62 194.13 74.1267 193.53 73.78C192.93 73.42 192.263 73.24 191.53 73.24C190.797 73.24 190.13 73.42 189.53 73.78C188.93 74.14 188.443 74.64 188.07 75.28C187.697 75.9067 187.483 76.62 187.43 77.42ZM197.95 80C197.95 79.3867 198.13 78.8467 198.49 78.38C198.863 77.9133 199.377 77.5533 200.03 77.3C200.697 77.0333 201.457 76.9 202.31 76.9C202.843 76.9 203.397 76.9467 203.97 77.04C204.557 77.1333 205.07 77.26 205.51 77.42V76.44C205.51 75.48 205.23 74.7133 204.67 74.14C204.11 73.5667 203.35 73.28 202.39 73.28C201.87 73.28 201.33 73.3867 200.77 73.6C200.21 73.8133 199.637 74.12 199.05 74.52L198.63 73.8C199.99 72.88 201.277 72.42 202.49 72.42C203.717 72.42 204.69 72.7867 205.41 73.52C206.143 74.2533 206.51 75.2533 206.51 76.52V81.68C206.51 82 206.657 82.1667 206.95 82.18V83C206.697 83.0267 206.53 83.0333 206.45 83.02C206.197 82.9933 205.997 82.8867 205.85 82.7C205.717 82.5133 205.643 82.32 205.63 82.12V81.3C205.15 81.9 204.53 82.3667 203.77 82.7C203.023 83.0333 202.237 83.2 201.41 83.2C200.757 83.2 200.163 83.06 199.63 82.78C199.11 82.4867 198.697 82.1 198.39 81.62C198.097 81.14 197.95 80.6 197.95 80ZM205.11 80.86C205.377 80.5267 205.51 80.2133 205.51 79.92V78.2C204.55 77.8267 203.517 77.64 202.41 77.64C201.357 77.64 200.51 77.8533 199.87 78.28C199.23 78.6933 198.91 79.2467 198.91 79.94C198.91 80.38 199.023 80.7867 199.25 81.16C199.477 81.5333 199.79 81.8333 200.19 82.06C200.603 82.2867 201.077 82.4 201.61 82.4C202.357 82.4 203.043 82.26 203.67 81.98C204.297 81.6867 204.777 81.3133 205.11 80.86ZM214.472 73.5C213.539 73.5267 212.719 73.8067 212.012 74.34C211.319 74.86 210.832 75.58 210.552 76.5V83H209.552V72.6H210.512V75.16C210.872 74.44 211.352 73.8467 211.952 73.38C212.552 72.9133 213.186 72.6467 213.852 72.58C213.986 72.58 214.099 72.58 214.192 72.58C214.299 72.5667 214.392 72.56 214.472 72.56V73.5ZM221.151 86.52C221.364 86.5333 221.551 86.5333 221.711 86.52C221.884 86.52 222.011 86.4933 222.091 86.44C222.211 86.4133 222.331 86.3067 222.451 86.12C222.571 85.9467 222.737 85.62 222.951 85.14C223.177 84.66 223.484 83.9467 223.871 83L219.231 72.6H220.291L224.411 81.94L228.231 72.6H229.251L223.551 86.28C223.431 86.5867 223.244 86.8467 222.991 87.06C222.737 87.2733 222.404 87.3933 221.991 87.42C221.871 87.4333 221.737 87.44 221.591 87.44C221.457 87.4533 221.311 87.4533 221.151 87.44V86.52ZM235.26 83.2C234.287 83.2 233.413 82.9533 232.64 82.46C231.88 81.9667 231.28 81.3133 230.84 80.5C230.4 79.6867 230.18 78.7933 230.18 77.82C230.18 77.0867 230.307 76.4 230.56 75.76C230.813 75.1067 231.173 74.5333 231.64 74.04C232.107 73.5333 232.647 73.14 233.26 72.86C233.873 72.5667 234.54 72.42 235.26 72.42C235.98 72.42 236.647 72.5667 237.26 72.86C237.873 73.14 238.407 73.5333 238.86 74.04C239.327 74.5333 239.687 75.1067 239.94 75.76C240.207 76.4 240.34 77.0867 240.34 77.82C240.34 78.7933 240.113 79.6867 239.66 80.5C239.22 81.3133 238.613 81.9667 237.84 82.46C237.08 82.9533 236.22 83.2 235.26 83.2ZM231.18 77.86C231.18 78.6733 231.36 79.42 231.72 80.1C232.093 80.7667 232.587 81.3 233.2 81.7C233.813 82.1 234.493 82.3 235.24 82.3C235.987 82.3 236.667 82.1 237.28 81.7C237.907 81.2867 238.4 80.74 238.76 80.06C239.133 79.38 239.32 78.6267 239.32 77.8C239.32 76.9867 239.133 76.24 238.76 75.56C238.4 74.88 237.907 74.34 237.28 73.94C236.667 73.5267 235.993 73.32 235.26 73.32C234.513 73.32 233.833 73.5267 233.22 73.94C232.607 74.3533 232.113 74.9067 231.74 75.6C231.367 76.28 231.18 77.0333 231.18 77.86ZM242.636 78.6V72.6H243.636V78.46C243.636 81.02 244.509 82.3 246.256 82.3C246.842 82.3 247.402 82.1733 247.936 81.92C248.482 81.6533 248.956 81.2867 249.356 80.82C249.769 80.34 250.082 79.7867 250.296 79.16V72.6H251.296V81.68C251.296 82 251.436 82.1667 251.716 82.18V83C251.489 83.0267 251.322 83.0267 251.216 83C250.989 82.9733 250.802 82.88 250.656 82.72C250.509 82.5467 250.429 82.34 250.416 82.1L250.396 80.54C249.942 81.3667 249.316 82.02 248.516 82.5C247.729 82.9667 246.876 83.2 245.956 83.2C243.742 83.2 242.636 81.6667 242.636 78.6Z" fill="#F5F5F5"/>
<path d="M139.167 124.167C139.167 124.167 139.167 120 143.333 120C147.5 120 147.5 124.167 147.5 124.167V128.333C147.5 128.333 147.5 132.5 143.333 132.5C139.167 132.5 139.167 128.333 139.167 128.333V124.167ZM172.5 149.167C172.5 149.167 176.667 149.167 176.667 153.333C176.667 157.5 172.5 157.5 172.5 157.5H168.333C168.333 157.5 164.167 157.5 164.167 153.333C164.167 149.167 168.333 149.167 168.333 149.167H172.5ZM118.333 149.167C118.333 149.167 122.5 149.167 122.5 153.333C122.5 157.5 118.333 157.5 118.333 157.5H114.167C114.167 157.5 110 157.5 110 153.333C110 149.167 114.167 149.167 114.167 149.167H118.333ZM126.4 132.59C126.4 132.59 129.346 135.535 126.4 138.481C123.454 141.427 120.508 138.481 120.508 138.481L117.56 135.537C117.56 135.537 114.615 132.592 117.56 129.644C120.508 126.698 123.454 129.644 123.454 129.644L126.4 132.59ZM166.16 138.481C166.16 138.481 163.215 141.427 160.269 138.481C157.323 135.535 160.269 132.59 160.269 132.59L163.215 129.644C163.215 129.644 166.16 126.698 169.106 129.644C172.052 132.59 169.106 135.535 169.106 135.535L166.16 138.481Z" fill="#FFAC33"/>
<path d="M143.333 172.083C153.689 172.083 162.083 163.689 162.083 153.333C162.083 142.978 153.689 134.583 143.333 134.583C132.978 134.583 124.583 142.978 124.583 153.333C124.583 163.689 132.978 172.083 143.333 172.083Z" fill="#FFAC33"/>
<path d="M168.333 161.667C166.615 161.667 164.958 161.927 163.398 162.41C161.55 157.129 156.537 153.333 150.625 153.333C144.283 153.333 138.975 157.7 137.502 163.585C135.931 162.398 133.998 161.667 131.875 161.667C126.698 161.667 122.5 165.865 122.5 171.042C122.5 172.3 122.756 173.496 123.206 174.592C122.312 174.344 121.39 174.167 120.417 174.167C114.662 174.167 110 178.829 110 184.583C110 190.338 114.662 195 120.417 195H168.333C177.537 195 185 187.54 185 178.333C185 169.129 177.537 161.667 168.333 161.667Z" fill="#E1E8ED"/>
</svg>
